# xmcd CD database file
# Copyright (C) 1995-1998 Ti Kan
#
# Track frame offsets:
#	150
#	4223
#	55353
#	104017
#	152664
#
# Disc length: 2639 seconds
#
# Revision: 1
# Processed by: cddbd v1.4PL0 Copyright (c) Steve Scherf et al.
# Submitted via: CDex 1.30Release
#
DISCID=3b0a4d05
DTITLE=Various Artist - And This Is Maxwell Street (Volume 3)
DYEAR=2001
DGENRE=Blues
TTITLE0=Bloomfield Interviews Night Hawk - Musical Introduction
TTITLE1=Bloomfield Interviews Night Hawk - Reel 2
TTITLE2=Bloomfield Interviews Night Hawk - Reel 3
TTITLE3=Bloomfield Interviews Night Hawk  -Reel 4
TTITLE4=Bloomfield Interviews Night Hawk - Reel 1
EXTD=YEAR: 2001 ID3G:   0
EXTT0=
EXTT1=
EXTT2=
EXTT3=
EXTT4=
PLAYORDER=
